<?xml version="1.0" encoding="UTF-8"?>
<svg xmlns="http://www.w3.org/2000/svg" xmlns:xlink="http://www.w3.org/1999/xlink" viewBox="0 0 48 48" width="48px" height="48px">
<g id="surface124953814">
<path style=" stroke:none;fill-rule:nonzero;fill:rgb(91.764706%,91.764706%,91.764706%);fill-opacity:1;" d="M 10 6 C 7.8125 6 6 7.8125 6 10 L 6 38 C 6 40.1875 7.8125 42 10 42 L 38 42 C 40.1875 42 42 40.1875 42 38 L 42 24 L 38 24 L 38 38 L 10 38 L 10 10 L 24 10 L 24 6 Z M 28 6 L 28 10 L 35.171875 10 L 16.585938 28.585938 L 19.414062 31.414062 L 38 12.828125 L 38 20 L 42 20 L 42 6 Z M 28 6 "/>
</g>
</svg>
